<svg xmlns="http://www.w3.org/2000/svg" xmlns:xlink="http://www.w3.org/1999/xlink" preserveAspectRatio="xMidYMid" width="1341" height="512" viewBox="0 0 1341 512">
  <path d="M1267.356,268.471 C1263.594,276.185 1256.697,283.136 1246.664,289.319 C1236.632,295.505 1222.837,300.890 1205.280,305.476 C1187.724,310.063 1165.151,313.747 1137.561,316.525 C1137.421,318.056 1137.352,319.548 1137.352,321.008 C1137.352,322.467 1137.352,323.962 1137.352,325.490 C1137.352,344.116 1141.428,358.325 1149.579,368.124 C1157.731,377.922 1170.026,382.822 1186.470,382.822 C1193.158,382.822 1199.115,382.128 1204.340,380.737 C1209.565,379.349 1214.232,377.646 1218.344,375.629 C1222.452,373.616 1226.077,371.391 1229.212,368.958 C1232.347,366.528 1235.237,364.303 1237.886,362.286 C1240.531,360.273 1242.971,358.570 1245.201,357.179 C1247.429,355.791 1249.659,355.094 1251.890,355.094 C1254.398,355.094 1256.697,356.276 1258.787,358.638 L1267.983,370.104 C1260.877,377.473 1253.944,383.760 1247.187,388.972 C1240.427,394.184 1233.497,398.529 1226.391,402.002 C1219.284,405.477 1211.864,408.015 1204.131,409.611 C1196.398,411.207 1188.070,412.009 1179.154,412.009 C1167.032,412.009 1156.163,409.992 1146.549,405.963 C1136.934,401.933 1128.783,396.200 1122.095,388.763 C1115.406,381.330 1110.250,372.329 1106.628,361.765 C1103.003,351.205 1101.194,339.390 1101.194,326.324 C1101.194,315.483 1102.343,304.678 1104.642,293.906 C1106.941,283.136 1110.286,272.885 1114.675,263.155 C1119.064,253.428 1124.426,244.392 1130.769,236.053 C1137.107,227.714 1144.354,220.521 1152.506,214.475 C1160.657,208.429 1169.644,203.670 1179.468,200.194 C1189.291,196.722 1199.846,194.983 1211.133,194.983 C1221.861,194.983 1231.126,196.514 1238.931,199.569 C1246.733,202.628 1253.144,206.520 1258.160,211.244 C1263.176,215.970 1266.902,221.182 1269.342,226.880 C1271.778,232.580 1273.000,238.001 1273.000,243.141 C1273.000,252.314 1271.119,260.757 1267.356,268.471 ZM1238.095,236.782 C1236.978,234.072 1235.202,231.606 1232.765,229.381 C1230.326,227.160 1227.155,225.316 1223.255,223.857 C1219.353,222.397 1214.614,221.668 1209.043,221.668 C1200.264,221.668 1192.181,223.476 1184.798,227.088 C1177.410,230.704 1170.862,235.672 1165.151,241.994 C1159.436,248.320 1154.560,255.754 1150.520,264.302 C1146.477,272.849 1143.342,282.058 1141.114,291.925 C1162.571,289.286 1179.781,286.264 1192.740,282.856 C1205.699,279.452 1215.659,275.768 1222.628,271.807 C1229.594,267.846 1234.192,263.572 1236.423,258.985 C1238.650,254.399 1239.767,249.604 1239.767,244.600 C1239.767,242.099 1239.209,239.493 1238.095,236.782 ZM1024.075,409.090 C1019.196,409.090 1015.888,407.839 1014.147,405.337 C1012.403,402.836 1011.535,399.780 1011.535,396.164 L1015.506,352.175 C1010.209,361.212 1004.428,369.411 998.158,376.776 C991.888,384.144 985.304,390.431 978.407,395.643 C971.509,400.855 964.331,404.888 956.878,407.735 C949.423,410.582 941.862,412.009 934.201,412.009 C916.086,412.009 902.046,405.442 892.085,392.307 C882.122,379.173 877.141,360.097 877.141,335.080 C877.141,323.685 878.324,312.287 880.694,300.890 C883.062,289.495 886.442,278.582 890.831,268.158 C895.221,257.735 900.514,248.040 906.716,239.076 C912.915,230.111 919.812,222.365 927.408,215.830 C935.001,209.299 943.257,204.156 952.176,200.403 C961.091,196.650 970.428,194.774 980.183,194.774 C990.493,194.774 999.935,196.790 1008.504,200.820 C1017.073,204.853 1024.353,210.618 1030.345,218.124 L1044.767,102.001 L1081.344,102.001 L1043.304,409.090 L1024.075,409.090 ZM1007.981,228.339 C1000.594,225.284 993.142,223.753 985.617,223.753 C974.608,223.753 964.680,227.020 955.833,233.551 C946.983,240.086 939.459,248.529 933.260,258.881 C927.059,269.237 922.287,280.807 918.943,293.593 C915.599,306.382 913.927,318.959 913.927,331.327 C913.927,347.869 916.922,360.482 922.914,369.166 C928.904,377.854 937.336,382.196 948.205,382.196 C954.893,382.196 961.614,380.147 968.374,376.046 C975.131,371.948 981.679,366.248 988.021,358.951 C994.360,351.654 1000.281,342.970 1005.787,332.891 C1011.290,322.816 1016.061,311.802 1020.104,299.847 L1027.001,243.975 C1021.704,236.610 1015.365,231.398 1007.981,228.339 ZM820.401,373.649 C810.714,385.463 799.255,394.809 786.018,401.689 C772.779,408.569 758.566,412.009 743.380,412.009 C731.813,412.009 721.225,410.028 711.611,406.067 C701.997,402.106 693.705,396.373 686.739,388.868 C679.770,381.362 674.335,372.189 670.436,361.348 C666.533,350.507 664.584,338.139 664.584,324.239 C664.584,306.450 667.369,289.703 672.944,273.996 C678.516,258.292 686.144,244.532 695.831,232.717 C705.514,220.906 716.941,211.592 730.108,204.781 C743.276,197.973 757.521,194.566 772.851,194.566 C784.415,194.566 795.006,196.546 804.620,200.507 C814.235,204.468 822.523,210.201 829.492,217.707 C836.458,225.212 841.893,234.421 845.795,245.330 C849.695,256.243 851.647,268.575 851.647,282.335 C851.647,299.987 848.858,316.666 843.287,332.370 C837.712,348.077 830.084,361.837 820.401,373.649 ZM802.739,238.555 C795.074,228.688 783.997,223.753 769.507,223.753 C759.193,223.753 749.892,226.499 741.604,231.987 C733.312,237.480 726.242,244.845 720.389,254.086 C714.537,263.331 710.007,273.996 706.804,286.088 C703.597,298.179 701.997,310.828 701.997,324.031 C701.997,343.491 705.791,358.189 713.388,368.124 C720.980,378.062 732.094,383.030 746.725,383.030 C756.894,383.030 766.162,380.251 774.523,374.691 C782.883,369.134 789.990,361.733 795.842,352.488 C801.694,343.247 806.220,332.578 809.427,320.487 C812.631,308.395 814.235,295.749 814.235,282.543 C814.235,263.087 810.401,248.425 802.739,238.555 ZM635.323,240.639 C634.069,241.336 632.674,241.682 631.143,241.682 C629.190,241.682 627.276,240.815 625.395,239.076 C623.514,237.339 621.074,235.395 618.080,233.238 C615.082,231.085 611.319,229.140 606.793,227.401 C602.263,225.665 596.447,224.795 589.341,224.795 C579.726,224.795 570.634,227.401 562.065,232.613 C553.496,237.825 546.004,244.949 539.596,253.982 C533.186,263.018 528.134,273.719 524.443,286.088 C520.750,298.460 518.904,311.730 518.904,325.907 C518.904,334.526 519.878,342.344 521.831,349.361 C523.780,356.381 526.706,362.358 530.609,367.290 C534.508,372.225 539.283,376.046 544.926,378.756 C550.569,381.467 557.153,382.822 564.678,382.822 C570.948,382.822 576.519,382.164 581.398,380.841 C586.274,379.522 590.595,377.890 594.357,375.942 C598.119,373.997 601.427,371.877 604.285,369.583 C607.139,367.290 609.719,365.173 612.018,363.225 C614.317,361.280 616.408,359.648 618.289,358.325 C620.170,357.006 622.083,356.345 624.036,356.345 C626.822,356.345 629.190,357.527 631.143,359.889 L640.339,371.147 C633.092,379.069 626.231,385.672 619.752,390.952 C613.272,396.236 606.757,400.438 600.209,403.565 C593.658,406.692 586.865,408.881 579.831,410.132 C572.793,411.383 565.233,412.009 557.153,412.009 C544.890,412.009 534.058,409.924 524.652,405.754 C515.247,401.585 507.373,395.715 501.034,388.138 C494.692,380.564 489.885,371.460 486.612,360.827 C483.337,350.195 481.701,338.487 481.701,325.699 C481.701,308.603 484.382,292.205 489.748,276.498 C495.110,260.793 502.602,246.894 512.216,234.802 C521.831,222.710 533.254,213.052 546.494,205.823 C559.730,198.598 574.292,194.983 590.177,194.983 C604.109,194.983 615.813,197.452 625.290,202.383 C634.764,207.319 643.056,214.511 650.163,223.961 L638.458,237.929 C637.622,239.043 636.577,239.945 635.323,240.639 ZM461.851,221.355 C460.597,223.788 459.202,225.977 457.671,227.922 L335.609,380.111 L440.114,380.111 L436.770,409.090 L287.537,409.090 L289.418,393.663 C289.695,391.858 290.427,389.737 291.612,387.304 C292.795,384.874 294.225,382.545 295.897,380.320 L418.586,227.088 L315.753,227.088 L319.306,197.901 L466.031,197.901 L464.150,213.746 C463.869,216.387 463.105,218.925 461.851,221.355 ZM202.052,409.090 L227.551,197.901 L264.128,197.901 L238.629,409.090 L202.052,409.090 ZM196.099,132.963 C194.496,133.449 192.442,133.690 189.933,133.690 C188.679,133.690 187.321,133.690 185.858,133.690 C184.395,133.690 182.827,133.690 181.155,133.690 C175.162,133.690 169.624,134.556 164.539,136.289 C159.451,138.022 154.957,140.827 151.058,144.707 C147.155,148.586 143.879,153.645 141.234,159.880 C138.586,166.115 136.704,173.737 135.591,182.741 L133.083,202.071 L185.962,202.071 L182.409,228.756 L130.993,228.756 L109.883,402.210 L100.268,445.365 C97.897,455.789 91.490,461.001 81.039,461.001 L66.409,461.001 L94.625,229.381 L73.724,226.671 C71.353,225.977 69.472,225.003 68.081,223.753 C66.686,222.502 65.991,220.697 65.991,218.332 L67.663,202.071 L97.969,202.071 L100.477,181.640 C102.009,169.548 105.040,158.811 109.569,149.430 C114.096,140.048 119.811,132.126 126.708,125.663 C133.605,119.201 141.476,114.301 150.326,110.966 C159.173,107.630 168.683,105.962 178.856,105.962 C187.494,105.962 195.368,107.389 202.474,110.236 L198.921,129.331 C198.640,131.270 197.699,132.481 196.099,132.963 Z" class="LLG-1"/>
  <g>
    <ellipse cx="253.297" cy="143.703" rx="19.891" ry="20.297" class="LLG-2"/>
    <ellipse cx="295.11" cy="106.25" rx="19.891" ry="20.281" class="LLG-2"/>
    <ellipse cx="236.453" cy="82.828" rx="23.453" ry="23.922" class="LLG-2"/>
    <g>
      <path d="M275.410,38.217 L275.410,38.217 C276.112,37.872 277.052,38.220 277.508,38.994 L279.163,41.796 C279.619,42.570 279.420,43.477 278.718,43.821 L278.718,43.821 C278.016,44.166 277.077,43.818 276.620,43.044 L274.966,40.242 C274.509,39.468 274.708,38.562 275.410,38.217 Z" class="LLG-1"/>
      <path d="M269.503,44.207 L269.503,44.207 C269.927,43.441 270.835,43.197 271.532,43.661 L274.052,45.341 C274.748,45.806 274.969,46.802 274.544,47.568 L274.544,47.568 C274.120,48.334 273.212,48.578 272.516,48.114 L269.996,46.433 C269.300,45.969 269.079,44.972 269.503,44.207 Z" class="LLG-1"/>
      <path d="M267.143,53.051 L267.143,53.051 C267.162,52.156 267.838,51.445 268.653,51.465 L271.604,51.534 C272.418,51.553 273.063,52.294 273.044,53.189 L273.044,53.189 C273.025,54.084 272.349,54.794 271.534,54.775 L268.583,54.706 C267.768,54.687 267.123,53.946 267.143,53.051 Z" class="LLG-1"/>
      <path d="M269.325,61.995 L269.325,61.995 C268.987,61.279 269.329,60.321 270.087,59.855 L272.835,58.168 C273.593,57.702 274.482,57.905 274.820,58.621 L274.820,58.621 C275.158,59.337 274.817,60.295 274.058,60.761 L271.311,62.448 C270.552,62.913 269.663,62.711 269.325,61.995 Z" class="LLG-1"/>
      <path d="M275.198,68.019 L275.198,68.019 C274.448,67.587 274.208,66.661 274.663,65.951 L276.311,63.380 C276.766,62.670 277.743,62.445 278.494,62.878 L278.494,62.878 C279.245,63.310 279.484,64.236 279.029,64.946 L277.381,67.517 C276.926,68.227 275.949,68.452 275.198,68.019 Z" class="LLG-1"/>
      <path d="M283.870,70.427 L283.870,70.427 C282.992,70.407 282.296,69.718 282.315,68.887 L282.382,65.877 C282.401,65.046 283.128,64.388 284.005,64.408 L284.005,64.408 C284.883,64.428 285.579,65.117 285.561,65.948 L285.493,68.958 C285.474,69.789 284.747,70.447 283.870,70.427 Z" class="LLG-1"/>
      <path d="M292.265,68.397 L292.265,68.397 C291.550,68.740 290.594,68.394 290.128,67.625 L288.444,64.839 C287.979,64.070 288.182,63.168 288.896,62.826 L288.896,62.826 C289.611,62.483 290.568,62.829 291.033,63.598 L292.717,66.384 C293.182,67.153 292.980,68.055 292.265,68.397 Z" class="LLG-1"/>
      <path d="M298.279,62.442 L298.279,62.442 C297.848,63.204 296.923,63.447 296.214,62.985 L293.648,61.314 C292.939,60.853 292.715,59.862 293.147,59.101 L293.147,59.101 C293.578,58.340 294.503,58.097 295.212,58.558 L297.778,60.229 C298.487,60.690 298.711,61.681 298.279,62.442 Z" class="LLG-1"/>
      <path d="M300.683,53.650 L300.683,53.650 C300.664,54.540 299.975,55.246 299.146,55.227 L296.141,55.158 C295.311,55.139 294.655,54.402 294.674,53.513 L294.674,53.513 C294.694,52.623 295.382,51.917 296.212,51.936 L299.217,52.005 C300.046,52.024 300.703,52.760 300.683,53.650 Z" class="LLG-1"/>
      <path d="M298.240,44.425 L298.240,44.425 C298.582,45.161 298.273,46.164 297.552,46.666 L294.938,48.483 C294.216,48.985 293.354,48.795 293.012,48.058 L293.012,48.058 C292.671,47.322 292.979,46.319 293.701,45.817 L296.315,44.000 C297.037,43.498 297.899,43.688 298.240,44.425 Z" class="LLG-1"/>
      <path d="M292.443,38.301 L292.443,38.301 C293.177,38.733 293.428,39.689 293.005,40.438 L291.471,43.147 C291.047,43.896 290.109,44.152 289.375,43.720 L289.375,43.720 C288.642,43.288 288.390,42.331 288.814,41.583 L290.348,38.873 C290.771,38.125 291.709,37.869 292.443,38.301 Z" class="LLG-1"/>
      <path d="M284.136,36.000 L284.136,36.000 C283.285,36.019 282.610,36.704 282.628,37.529 L282.694,40.516 C282.712,41.341 283.416,41.994 284.267,41.974 L284.267,41.974 C285.118,41.955 285.794,41.270 285.776,40.445 L285.710,37.458 C285.691,36.633 284.987,35.980 284.136,36.000 Z" class="LLG-1"/>
    </g>
  </g>
</svg>
<svg xmlns="http://www.w3.org/2000/svg" xmlns:xlink="http://www.w3.org/1999/xlink" preserveAspectRatio="xMidYMid" width="32" height="32" viewBox="0 0 512 512">
  <g>
    <path d="M217.829,338.288 C256.493,338.288 287.836,370.235 287.836,409.644 C287.836,449.053 256.493,481.000 217.829,481.000 C179.165,481.000 147.822,449.053 147.822,409.644 C147.822,370.235 179.165,338.288 217.829,338.288 Z" class="SLG-1"/>
    <path d="M364.993,206.671 C403.657,206.671 435.000,238.594 435.000,277.973 C435.000,317.351 403.657,349.274 364.993,349.274 C326.329,349.274 294.986,317.351 294.986,277.973 C294.986,238.594 326.329,206.671 364.993,206.671 Z" class="SLG-1"/>
    <path d="M158.546,111.530 C204.135,111.530 241.092,149.183 241.092,195.630 C241.092,242.077 204.135,279.730 158.546,279.730 C112.957,279.730 76.000,242.077 76.000,195.630 C76.000,149.183 112.957,111.530 158.546,111.530 Z" class="SLG-1"/>
    <g>
      <path d="M295.659,38.794 L295.659,38.794 C298.130,37.582 301.437,38.806 303.044,41.526 L308.866,51.377 C310.474,54.097 309.774,57.285 307.303,58.496 L307.303,58.496 C304.832,59.708 301.526,58.485 299.918,55.764 L294.097,45.913 C292.489,43.193 293.189,40.005 295.659,38.794 Z" class="SLG-1"/>
      <path d="M274.870,59.852 L274.870,59.852 C276.362,57.160 279.558,56.301 282.008,57.932 L290.879,63.841 C293.329,65.473 294.105,68.978 292.612,71.669 L292.612,71.669 C291.120,74.361 287.924,75.220 285.474,73.589 L276.603,67.680 C274.153,66.048 273.377,62.543 274.870,59.852 Z" class="SLG-1"/>
      <path d="M266.561,90.944 L266.561,90.944 C266.628,87.797 269.008,85.301 271.876,85.368 L282.261,85.611 C285.129,85.678 287.399,88.284 287.331,91.431 L287.331,91.431 C287.263,94.578 284.884,97.074 282.016,97.007 L271.631,96.764 C268.763,96.697 266.493,94.091 266.561,90.944 Z" class="SLG-1"/>
      <path d="M274.243,122.388 L274.243,122.388 C273.054,119.870 274.254,116.502 276.925,114.865 L286.594,108.934 C289.265,107.296 292.393,108.009 293.583,110.526 L293.583,110.526 C294.772,113.043 293.571,116.411 290.901,118.049 L281.231,123.980 C278.561,125.618 275.432,124.905 274.243,122.388 Z" class="SLG-1"/>
      <path d="M294.913,143.567 L294.913,143.567 C292.271,142.047 291.428,138.791 293.029,136.295 L298.829,127.258 C300.431,124.762 303.871,123.972 306.513,125.492 L306.513,125.492 C309.155,127.013 309.999,130.269 308.397,132.764 L302.597,141.802 C300.996,144.297 297.555,145.088 294.913,143.567 Z" class="SLG-1"/>
      <path d="M325.433,152.032 L325.433,152.032 C322.344,151.963 319.894,149.539 319.960,146.617 L320.199,136.037 C320.264,133.116 322.822,130.803 325.911,130.872 L325.911,130.872 C329.000,130.941 331.451,133.366 331.385,136.287 L331.146,146.867 C331.080,149.789 328.522,152.101 325.433,152.032 Z" class="SLG-1"/>
      <path d="M354.981,144.896 L354.981,144.896 C352.465,146.101 349.099,144.885 347.462,142.180 L341.534,132.387 C339.897,129.682 340.610,126.514 343.125,125.309 L343.125,125.309 C345.641,124.105 349.008,125.321 350.645,128.025 L356.573,137.819 C358.209,140.523 357.497,143.692 354.981,144.896 Z" class="SLG-1"/>
      <path d="M376.150,123.962 L376.150,123.962 C374.630,126.638 371.376,127.492 368.882,125.870 L359.849,119.996 C357.354,118.374 356.564,114.890 358.084,112.214 L358.084,112.214 C359.604,109.538 362.858,108.683 365.352,110.305 L374.385,116.179 C376.880,117.802 377.670,121.286 376.150,123.962 Z" class="SLG-1"/>
      <path d="M384.611,93.052 L384.611,93.052 C384.541,96.180 382.118,98.662 379.198,98.595 L368.624,98.353 C365.704,98.286 363.392,95.696 363.461,92.568 L363.461,92.568 C363.530,89.439 365.953,86.957 368.873,87.024 L379.448,87.266 C382.368,87.333 384.679,89.923 384.611,93.052 Z" class="SLG-1"/>
      <path d="M376.012,60.618 L376.012,60.618 C377.214,63.206 376.129,66.734 373.588,68.498 L364.388,74.885 C361.848,76.649 358.814,75.981 357.612,73.393 L357.612,73.393 C356.409,70.805 357.495,67.277 360.035,65.513 L369.235,59.125 C371.776,57.361 374.810,58.029 376.012,60.618 Z" class="SLG-1"/>
      <path d="M355.608,39.088 L355.608,39.088 C358.191,40.607 359.075,43.971 357.585,46.601 L352.186,56.127 C350.695,58.758 347.393,59.659 344.811,58.141 L344.811,58.141 C342.229,56.622 341.344,53.258 342.835,50.627 L348.233,41.101 C349.724,38.470 353.026,37.569 355.608,39.088 Z" class="SLG-1"/>
      <path d="M326.370,30.999 L326.370,30.999 C323.375,31.067 320.998,33.474 321.062,36.374 L321.294,46.876 C321.358,49.776 323.838,52.071 326.833,52.003 L326.833,52.003 C329.829,51.934 332.205,49.528 332.141,46.628 L331.909,36.126 C331.845,33.226 329.365,30.930 326.370,30.999 Z" class="SLG-1"/>
    </g>
  </g>
</svg>