<svg xmlns="http://www.w3.org/2000/svg" xmlns:xlink="http://www.w3.org/1999/xlink" preserveAspectRatio="xMidYMid" width="65" height="65" viewBox="0 0 512 512">
  <defs>
    <style>
      .GSL-1 {
        fill: #fff;
        fill-rule: evenodd;
      }
    </style>
  </defs>
  <path d="M319.200,71.314 C322.547,73.404 326.314,76.455 330.498,80.462 C334.513,84.645 338.451,89.786 342.302,95.886 C345.984,101.636 349.246,108.431 352.094,116.272 C354.435,124.115 355.610,133.263 355.610,143.720 C355.292,162.891 351.083,178.224 342.981,189.724 C339.007,195.304 334.797,200.441 330.352,205.148 C325.428,209.853 320.187,214.647 314.628,219.525 C311.450,222.837 308.514,226.580 305.815,230.763 C302.639,235.121 301.049,240.175 301.049,245.926 C301.049,251.503 302.678,256.119 305.937,259.778 C308.704,263.268 311.393,266.314 314.003,268.929 L332.087,283.827 C343.327,293.066 353.184,303.255 361.656,314.409 C369.640,325.737 373.797,340.550 374.122,358.848 C374.122,384.810 362.716,407.813 339.905,427.854 C316.249,448.592 282.114,459.309 237.509,460.008 C200.168,459.656 172.286,451.655 153.872,436.003 C135.287,421.389 125.990,403.910 125.990,383.561 C125.990,373.644 129.013,362.601 135.059,350.425 C140.926,338.247 151.548,327.549 166.922,318.336 C184.191,308.419 202.330,301.811 221.329,298.507 C240.150,295.720 255.780,294.159 268.218,293.810 C264.375,288.729 260.949,283.297 257.942,277.513 C254.432,271.909 252.680,265.161 252.680,257.274 C252.680,252.547 253.346,248.600 254.684,245.448 C255.854,242.118 256.939,239.055 257.942,236.254 C251.884,236.952 246.175,237.299 240.813,237.299 C212.434,236.952 190.802,227.979 175.924,210.379 C160.349,194.001 152.563,174.924 152.563,153.143 C152.563,126.831 163.596,102.964 185.662,81.528 C200.819,68.986 216.567,60.796 232.905,56.960 C249.076,53.654 264.236,51.995 278.385,51.995 L385.002,51.995 L352.074,71.314 L319.200,71.314 ZM339.795,379.795 C339.795,366.200 335.379,354.346 326.554,344.242 C317.217,334.652 302.622,322.890 282.760,308.945 C279.364,308.594 275.377,308.424 270.795,308.424 C268.076,308.072 261.117,308.424 249.914,309.469 C238.877,311.036 227.591,313.561 216.051,317.048 C213.332,318.095 209.513,319.662 204.593,321.757 C199.668,324.020 194.663,327.247 189.571,331.429 C184.646,335.782 180.490,341.188 177.093,347.638 C173.188,354.436 171.238,362.626 171.238,372.214 C171.238,391.036 179.721,406.547 196.698,418.752 C212.824,430.951 234.892,437.225 262.900,437.576 C288.023,437.225 307.204,431.649 320.443,420.843 C333.343,410.207 339.795,396.524 339.795,379.795 ZM265.464,222.709 C279.498,222.187 291.192,217.122 300.549,207.515 C305.060,200.707 307.961,193.725 309.249,186.563 C310.021,179.408 310.411,173.384 310.411,168.492 C310.411,147.363 305.035,126.060 294.283,104.581 C289.242,94.279 282.607,85.898 274.374,79.437 C265.971,73.327 256.313,70.096 245.391,69.745 C230.943,70.096 218.927,75.946 209.354,87.295 C201.277,99.171 197.414,112.442 197.762,127.106 C197.762,146.488 203.402,166.661 214.690,187.613 C220.151,197.393 227.205,205.686 235.843,212.494 C244.481,219.309 254.355,222.709 265.464,222.709 Z" class="GSL-1"/>
</svg>